<svg width="59" height="11" viewBox="0 0 59 11" fill="none" xmlns="http://www.w3.org/2000/svg">
<path d="M3.72041 10.9795C2.95139 10.9795 2.28802 10.8122 1.7303 10.4777C1.17605 10.1397 0.748239 9.66853 0.446865 9.06425C0.148955 8.45655 0 7.74984 0 6.94413C0 6.13842 0.148955 5.42831 0.446865 4.81378C0.748239 4.19584 1.16739 3.71446 1.70432 3.36965C2.24472 3.02142 2.87518 2.8473 3.5957 2.8473C4.01139 2.8473 4.42188 2.91558 4.82718 3.05214C5.23247 3.1887 5.6014 3.41061 5.93395 3.71788C6.2665 4.02173 6.5315 4.42458 6.72895 4.92644C6.9264 5.42831 7.02513 6.04624 7.02513 6.78026V7.29237H0.872945V6.24767H5.77806C5.77806 5.80385 5.688 5.40782 5.50787 5.05959C5.3312 4.71136 5.07832 4.43653 4.74924 4.2351C4.42361 4.03367 4.0391 3.93296 3.5957 3.93296C3.10727 3.93296 2.68465 4.05245 2.32785 4.29143C1.97452 4.527 1.70259 4.83426 1.51207 5.21322C1.32154 5.59218 1.22628 5.99845 1.22628 6.43203V7.12849C1.22628 7.72253 1.3302 8.2261 1.53805 8.6392C1.74935 9.04888 2.04207 9.36127 2.41619 9.57635C2.79031 9.78802 3.22505 9.89386 3.72041 9.89386C4.04257 9.89386 4.33355 9.84947 4.59335 9.76071C4.85662 9.66853 5.08352 9.53197 5.27404 9.35102C5.46457 9.16667 5.61179 8.93793 5.71571 8.6648L6.90042 8.99255C6.77572 9.38858 6.56614 9.73681 6.27169 10.0372C5.97725 10.3343 5.61352 10.5664 5.18051 10.7337C4.7475 10.8976 4.2608 10.9795 3.72041 10.9795Z" fill="#171717"/>
<path d="M13.8123 4.71136L12.7107 5.01862C12.6414 4.83768 12.5392 4.66186 12.4041 4.49115C12.2725 4.31704 12.0924 4.17365 11.8637 4.06099C11.6351 3.94832 11.3424 3.89199 10.9856 3.89199C10.4972 3.89199 10.0901 4.00295 9.76451 4.22486C9.44236 4.44336 9.28128 4.7216 9.28128 5.05959C9.28128 5.36002 9.39213 5.5973 9.61383 5.77142C9.83553 5.94553 10.1819 6.09063 10.653 6.2067L11.8378 6.49348C12.5514 6.66418 13.0831 6.92536 13.433 7.277C13.7828 7.62523 13.9578 8.07418 13.9578 8.62384C13.9578 9.07449 13.8261 9.47734 13.5629 9.8324C13.3031 10.1875 12.9393 10.4674 12.4717 10.6723C12.004 10.8771 11.4602 10.9795 10.8401 10.9795C10.0261 10.9795 9.35229 10.8054 8.81882 10.4572C8.28536 10.1089 7.94761 9.60025 7.80558 8.9311L8.96951 8.64432C9.08036 9.06766 9.28994 9.38516 9.59824 9.59683C9.91 9.8085 10.317 9.91434 10.8193 9.91434C11.3909 9.91434 11.8447 9.79485 12.1807 9.55587C12.5202 9.31347 12.6899 9.02328 12.6899 8.68529C12.6899 8.41217 12.5929 8.18343 12.3989 7.99907C12.2049 7.8113 11.907 7.67132 11.5052 7.57914L10.175 7.27188C9.44409 7.10118 8.90716 6.83659 8.56421 6.47812C8.22474 6.11623 8.055 5.66387 8.055 5.12104C8.055 4.67722 8.18143 4.28461 8.43431 3.9432C8.69065 3.6018 9.03879 3.3338 9.47873 3.1392C9.92213 2.9446 10.4244 2.8473 10.9856 2.8473C11.7754 2.8473 12.3955 3.018 12.8458 3.3594C13.2996 3.70081 13.6218 4.15146 13.8123 4.71136Z" fill="#171717"/>
<path d="M18.5431 2.94972V3.97393H14.407V2.94972H18.5431ZM15.6125 1.06518H16.8387V8.56238C16.8387 8.90379 16.889 9.15984 16.9894 9.33054C17.0934 9.49783 17.225 9.61049 17.3843 9.66853C17.5471 9.72315 17.7186 9.75046 17.8988 9.75046C18.0338 9.75046 18.1447 9.74364 18.2313 9.72998C18.3179 9.71291 18.3872 9.69925 18.4391 9.68901L18.6886 10.7747C18.6054 10.8054 18.4894 10.8361 18.3404 10.8669C18.1915 10.901 18.0027 10.9181 17.774 10.9181C17.4276 10.9181 17.0882 10.8447 16.7556 10.6979C16.4265 10.5511 16.1529 10.3274 15.9346 10.027C15.7199 9.72657 15.6125 9.34761 15.6125 8.89013V1.06518Z" fill="#171717"/>
<path d="M19.6561 10.8156V2.94972H20.8824V10.8156H19.6561ZM20.2796 1.63873C20.0406 1.63873 19.8345 1.5585 19.6613 1.39804C19.4915 1.23759 19.4067 1.04469 19.4067 0.819367C19.4067 0.594041 19.4915 0.401148 19.6613 0.240689C19.8345 0.0802295 20.0406 0 20.2796 0C20.5186 0 20.723 0.0802295 20.8927 0.240689C21.0659 0.401148 21.1525 0.594041 21.1525 0.819367C21.1525 1.04469 21.0659 1.23759 20.8927 1.39804C20.723 1.5585 20.5186 1.63873 20.2796 1.63873Z" fill="#171717"/>
<path d="M22.3968 10.8156V2.94972H23.5815V4.17877H23.6854C23.8517 3.75885 24.1201 3.43281 24.4908 3.20065C24.8614 2.96508 25.3066 2.8473 25.8262 2.8473C26.3527 2.8473 26.7909 2.96508 27.1408 3.20065C27.4941 3.43281 27.7695 3.75885 27.967 4.17877H28.0501C28.2545 3.7725 28.5611 3.44988 28.9698 3.21089C29.3786 2.9685 29.8687 2.8473 30.4403 2.8473C31.1539 2.8473 31.7376 3.0675 32.1914 3.50791C32.6452 3.94491 32.8721 4.62601 32.8721 5.55121V10.8156H31.6458V5.55121C31.6458 4.97083 31.4847 4.55602 31.1626 4.3068C30.8404 4.05757 30.4611 3.93296 30.0246 3.93296C29.4635 3.93296 29.0287 4.10025 28.7204 4.43482C28.4121 4.76598 28.258 5.18591 28.258 5.6946V10.8156H27.0109V5.4283C27.0109 4.98107 26.8637 4.62089 26.5692 4.34777C26.2748 4.07123 25.8955 3.93296 25.4313 3.93296C25.1126 3.93296 24.8147 4.0166 24.5375 4.18389C24.2639 4.35118 24.0422 4.58333 23.8724 4.88035C23.7062 5.17396 23.623 5.51366 23.623 5.89944V10.8156H22.3968Z" fill="#171717"/>
<path d="M36.7312 11C36.2255 11 35.7665 10.9061 35.3543 10.7183C34.9421 10.5272 34.6147 10.2523 34.3722 9.89386C34.1297 9.53197 34.0085 9.09497 34.0085 8.58287C34.0085 8.13222 34.0985 7.76691 34.2787 7.48696C34.4588 7.2036 34.6996 6.98169 35.0009 6.82123C35.3023 6.66077 35.6349 6.54128 35.9986 6.46276C36.3658 6.38082 36.7347 6.31595 37.1054 6.26816C37.5903 6.2067 37.9835 6.16061 38.2849 6.12989C38.5897 6.09575 38.8114 6.03942 38.95 5.96089C39.092 5.88237 39.163 5.74581 39.163 5.55121V5.51024C39.163 5.00497 39.0227 4.61235 38.7421 4.3324C38.465 4.05245 38.0441 3.91248 37.4795 3.91248C36.894 3.91248 36.4351 4.0388 36.1025 4.29143C35.77 4.54407 35.5361 4.81378 35.401 5.10056L34.2371 4.69087C34.445 4.21291 34.7221 3.84078 35.0685 3.57449C35.4184 3.30478 35.7994 3.11701 36.2116 3.01117C36.6273 2.90192 37.0361 2.8473 37.4379 2.8473C37.6942 2.8473 37.9887 2.87803 38.3212 2.93948C38.6573 2.99752 38.9811 3.11871 39.2929 3.30307C39.6081 3.48743 39.8697 3.76567 40.0775 4.1378C40.2854 4.50993 40.3893 5.00838 40.3893 5.63315V10.8156H39.163V9.75046H39.1007C39.0175 9.92117 38.879 10.1038 38.685 10.2984C38.491 10.493 38.2329 10.6586 37.9108 10.7952C37.5886 10.9317 37.1954 11 36.7312 11ZM36.9183 9.91434C37.4033 9.91434 37.812 9.82045 38.1446 9.63268C38.4806 9.44491 38.7335 9.20251 38.9032 8.90549C39.0764 8.60847 39.163 8.29609 39.163 7.96834V6.8622C39.1111 6.92365 38.9967 6.97998 38.8201 7.03119C38.6469 7.07899 38.446 7.12166 38.2173 7.15922C37.9922 7.19336 37.7722 7.22408 37.5574 7.2514C37.3461 7.27529 37.1746 7.29578 37.043 7.31285C36.7243 7.35382 36.4264 7.42039 36.1493 7.51257C35.8756 7.60133 35.6539 7.73619 35.4842 7.91713C35.3179 8.09466 35.2348 8.33706 35.2348 8.64432C35.2348 9.06425 35.3924 9.38175 35.7076 9.59683C36.0263 9.8085 36.4299 9.91434 36.9183 9.91434Z" fill="#171717"/>
<path d="M45.3669 2.94972V3.97393H41.2308V2.94972H45.3669ZM42.4363 1.06518H43.6626V8.56238C43.6626 8.90379 43.7128 9.15984 43.8133 9.33054C43.9172 9.49783 44.0488 9.61049 44.2082 9.66853C44.371 9.72315 44.5425 9.75046 44.7226 9.75046C44.8577 9.75046 44.9685 9.74364 45.0551 9.72998C45.1417 9.71291 45.211 9.69925 45.263 9.68901L45.5124 10.7747C45.4293 10.8054 45.3132 10.8361 45.1643 10.8669C45.0153 10.901 44.8265 10.9181 44.5979 10.9181C44.2515 10.9181 43.912 10.8447 43.5794 10.6979C43.2504 10.5511 42.9767 10.3274 42.7585 10.027C42.5437 9.72657 42.4363 9.34761 42.4363 8.89013V1.06518Z" fill="#171717"/>
<path d="M49.7405 10.9795C48.9714 10.9795 48.3081 10.8122 47.7504 10.4777C47.1961 10.1397 46.7683 9.66853 46.4669 9.06425C46.169 8.45655 46.0201 7.74984 46.0201 6.94413C46.0201 6.13842 46.169 5.42831 46.4669 4.81378C46.7683 4.19584 47.1874 3.71446 47.7244 3.36965C48.2648 3.02142 48.8952 2.8473 49.6158 2.8473C50.0314 2.8473 50.4419 2.91558 50.8472 3.05214C51.2525 3.1887 51.6214 3.41061 51.954 3.71788C52.2865 4.02173 52.5515 4.42458 52.749 4.92644C52.9465 5.42831 53.0452 6.04624 53.0452 6.78026V7.29237H46.893V6.24767H51.7981C51.7981 5.80385 51.708 5.40782 51.5279 5.05959C51.3512 4.71136 51.0984 4.43653 50.7693 4.2351C50.4437 4.03367 50.0592 3.93296 49.6158 3.93296C49.1273 3.93296 48.7047 4.05245 48.3479 4.29143C47.9946 4.527 47.7226 4.83426 47.5321 5.21322C47.3416 5.59218 47.2463 5.99845 47.2463 6.43203V7.12849C47.2463 7.72253 47.3503 8.2261 47.5581 8.6392C47.7694 9.04888 48.0621 9.36127 48.4362 9.57635C48.8104 9.78802 49.2451 9.89386 49.7405 9.89386C50.0626 9.89386 50.3536 9.84947 50.6134 9.76071C50.8767 9.66853 51.1036 9.53197 51.2941 9.35102C51.4846 9.16667 51.6318 8.93793 51.7358 8.6648L52.9205 8.99255C52.7958 9.38858 52.5862 9.73681 52.2917 10.0372C51.9973 10.3343 51.6336 10.5664 51.2006 10.7337C50.7676 10.8976 50.2809 10.9795 49.7405 10.9795Z" fill="#171717"/>
<path d="M58.513 2.73208C58.782 2.73232 58.9998 2.94403 59 3.20385C58.9998 3.46364 58.782 3.67421 58.513 3.67445H54.6108C54.3416 3.67445 54.1228 3.46379 54.1226 3.20385C54.1228 2.94388 54.3415 2.73208 54.6108 2.73208H58.513Z" fill="#171717"/>
<path d="M58.513 1.20174C58.7821 1.20198 59 1.41355 59 1.67351C58.9998 1.93331 58.782 2.14387 58.513 2.14412H54.6108C54.3415 2.14412 54.1228 1.93346 54.1226 1.67351C54.1226 1.4134 54.3414 1.20174 54.6108 1.20174H58.513Z" fill="#171717"/>
</svg>
