<svg width="35" height="18" viewBox="0 0 35 18" fill="none" xmlns="http://www.w3.org/2000/svg">
<path d="M31.5 11.1416C33.4322 11.1416 34.9988 12.6785 35 14.5713C34.9998 16.4649 33.4329 18 31.5 18H3.5C1.56712 18 0.000187267 16.4649 0 14.5713C0.00122609 12.6785 1.56776 11.1416 3.5 11.1416H31.5Z" fill="#171717"/>
<path d="M31.5 0C33.4329 4.4181e-07 34.9998 1.53506 35 3.42871C35 5.32252 33.433 6.8584 31.5 6.8584H3.5C1.567 6.8584 0 5.32252 0 3.42871C0.000186872 1.53505 1.56712 2.76134e-08 3.5 0H31.5Z" fill="#171717"/>
</svg>
